<svg width="24" height="24" viewBox="0 0 24 24" fill="none" xmlns="http://www.w3.org/2000/svg">
<path d="M13.06 11.9995L19.031 6.03048C19.324 5.73748 19.324 5.26348 19.031 4.97048C18.738 4.67748 18.262 4.67748 17.97 4.97048L11.999 10.9385L6.02999 4.97048C5.73699 4.67748 5.26199 4.67748 4.96899 4.97048C4.67599 5.26348 4.67599 5.73748 4.96899 6.03048L10.939 11.9995L4.96899 17.9705C4.67599 18.2635 4.67599 18.7375 4.96899 19.0305C5.11599 19.1775 5.30699 19.2495 5.49899 19.2495C5.69199 19.2495 5.88299 19.1775 6.02999 19.0305L11.999 13.0615L17.97 19.0305C18.116 19.1775 18.308 19.2495 18.5 19.2495C18.692 19.2495 18.884 19.1775 19.031 19.0305C19.324 18.7375 19.324 18.2635 19.031 17.9705L13.06 11.9995Z" fill="currentColor"/>
</svg>
