<svg width="24" height="24" viewBox="0 0 24 24" fill="none" xmlns="http://www.w3.org/2000/svg">
<path d="M13.2229 19.364H4.3689C4.10368 19.364 3.84933 19.2586 3.66179 19.0711C3.47425 18.8836 3.3689 18.6292 3.3689 18.364V17.337C3.3689 14.905 5.7979 12.647 8.7949 12.647C11.7929 12.647 14.2229 14.905 14.2229 17.337V18.364C14.2229 18.6292 14.1175 18.8836 13.93 19.0711C13.7425 19.2586 13.4881 19.364 13.2229 19.364ZM13.2229 19.364H19.6309C19.8961 19.364 20.1505 19.2586 20.338 19.0711C20.5255 18.8836 20.6309 18.6292 20.6309 18.364V16.98C20.6309 15.037 18.6909 13.235 16.2969 13.235C15.097 13.2299 13.9423 13.6918 13.0769 14.523M11.6699 7.50999C11.6699 8.27258 11.367 9.00395 10.8279 9.54327C10.2888 10.0826 9.55749 10.3857 8.7949 10.386C8.22632 10.386 7.67051 10.2174 7.19774 9.90153C6.72497 9.58567 6.35647 9.13671 6.13884 8.61143C5.92121 8.08615 5.86421 7.50814 5.97507 6.95047C6.08592 6.3928 6.35964 5.88053 6.76161 5.47841C7.16359 5.07629 7.67577 4.8024 8.2334 4.69135C8.79103 4.58031 9.36906 4.6371 9.89442 4.85455C10.4198 5.072 10.8689 5.44034 11.1849 5.913C11.5009 6.38566 11.6697 6.94141 11.6699 7.50999ZM18.4149 8.66399C18.421 8.94607 18.3706 9.22652 18.2669 9.48888C18.1631 9.75125 18.008 9.99025 17.8106 10.1919C17.6132 10.3935 17.3776 10.5537 17.1175 10.663C16.8573 10.7723 16.578 10.8286 16.2959 10.8285C16.0137 10.8284 15.7345 10.772 15.4744 10.6626C15.2143 10.5531 14.9788 10.3929 14.7815 10.1912C14.5842 9.98945 14.4292 9.75037 14.3256 9.48795C14.2219 9.22554 14.1717 8.94506 14.1779 8.66299C14.1901 8.1091 14.4187 7.582 14.8147 7.19462C15.2108 6.80724 15.7429 6.59038 16.2969 6.59051C16.8509 6.59065 17.3828 6.80775 17.7787 7.19532C18.1746 7.58289 18.403 8.11009 18.4149 8.66399Z" stroke="currentColor" stroke-width="1.5" stroke-linecap="round" stroke-linejoin="round"/>
</svg>
