<svg width="40" height="40" viewBox="0 0 40 40" fill="none" xmlns="http://www.w3.org/2000/svg">
<path d="M20.8875 10.6644C20.3615 10.2706 19.6389 10.2706 19.1129 10.6644L11.7522 16.1765C11.3789 16.456 11.1592 16.895 11.1592 17.3613V28.5198C11.1592 29.3373 11.8219 30 12.6394 30H15.8943C16.7118 30 17.3746 29.3373 17.3746 28.5198V25.5828C17.3746 24.7653 18.0373 24.1026 18.8548 24.1026H21.1507C21.9682 24.1026 22.631 24.7653 22.631 25.5828V28.5198C22.631 29.3373 23.2937 30 24.1112 30H27.361C28.1785 30 28.8412 29.3373 28.8412 28.5198V17.3613C28.8412 16.895 28.6215 16.456 28.2482 16.1765L20.8875 10.6644Z" stroke="currentColor" stroke-width="1.55556" stroke-linecap="round" stroke-linejoin="round"/>
</svg>
