<svg width="24" height="24" viewBox="0 0 24 24" fill="none" xmlns="http://www.w3.org/2000/svg">
<path d="M4.17747 17.9939L8.53147 13.8879C8.92247 13.5199 9.53347 13.5259 9.91747 13.9009L11.2875 15.2419C11.4845 15.4339 11.8055 15.4339 12.0015 15.2419L15.3655 11.9449C15.7605 11.5579 16.3945 11.5649 16.7815 11.9599L19.9625 15.2149M17.5701 20.0779H6.57007C5.18907 20.0779 4.07007 18.9589 4.07007 17.5779V6.57788C4.07007 5.19688 5.18907 4.07788 6.57007 4.07788H17.5701C18.9511 4.07788 20.0701 5.19688 20.0701 6.57788V17.5779C20.0701 18.9589 18.9511 20.0779 17.5701 20.0779ZM8.81227 10.6624C9.77727 10.6624 10.5623 9.87738 10.5623 8.91238C10.5623 7.94738 9.77727 7.16238 8.81227 7.16238C7.84727 7.16238 7.06227 7.94738 7.06227 8.91238C7.06227 9.87738 7.84727 10.6624 8.81227 10.6624Z" stroke="currentColor" stroke-width="1.5" stroke-linecap="round" stroke-linejoin="round"/>
</svg>
