<svg width="22" height="24" viewBox="0 0 22 24" fill="none" xmlns="http://www.w3.org/2000/svg">
<path d="M12.4276 4.80005C8.49935 4.80005 5.31424 7.92485 5.31424 11.7744C5.31424 12.8112 5.58312 13.7712 5.99379 14.6376C6.63668 14.34 7.19401 13.9488 7.81735 13.4568L11.198 10.7544C11.3129 10.6632 11.4033 10.596 11.4645 10.5528C11.9216 10.26 12.5376 10.368 12.8529 10.8024C13.1853 11.2344 13.1047 11.8368 12.6793 12.1776L9.51135 14.7312C8.18646 15.7968 7.04979 16.5864 5.36312 17.004C4.71535 17.22 4.0529 17.3448 3.39046 17.3448C2.86979 17.3448 2.44446 17.7624 2.44446 18.2712C2.44446 18.7824 2.86979 19.2 3.39046 19.2C5.12601 19.2 6.82979 18.612 8.40646 17.544C9.55779 18.3168 10.9438 18.7824 12.4422 18.7824C16.3705 18.7824 19.5556 15.6576 19.5556 11.8056V4.83125L12.4276 4.80005Z" fill="none" stroke="currentColor" stroke-width="1.5" stroke-linecap="round" stroke-linejoin="round"/>
</svg>
