<svg width="24" height="24" viewBox="0 0 24 24" fill="none" xmlns="http://www.w3.org/2000/svg">
<path fill-rule="evenodd" clip-rule="evenodd" d="M11.9995 13.1689C10.3435 13.1689 8.99949 11.8259 8.99949 10.1669C8.99949 8.51185 10.3435 7.16886 11.9995 7.16886C13.6565 7.16886 14.9995 8.51185 14.9995 10.1669C14.9995 11.8259 13.6565 13.1689 11.9995 13.1689ZM11.9985 3.02686C8.02048 3.02686 4.78448 6.26286 4.78448 10.2399C4.78448 12.9949 6.87948 15.3149 6.96148 15.4029L10.8605 20.4499C11.4595 21.1479 12.5395 21.1479 13.1385 20.4489L17.0285 15.4119C17.1185 15.3149 19.2155 12.9949 19.2155 10.2399C19.2155 6.26286 15.9785 3.02686 11.9985 3.02686Z" stroke="currentColor" stroke-width="1.5" stroke-linecap="round" stroke-linejoin="round"/>
</svg>
