<svg width="16" height="16" viewBox="0 0 16 16" fill="none" xmlns="http://www.w3.org/2000/svg">
<path d="M8 12.3334L6 11.3334M10 4.66669L6 2.66669L2 4.66669V13.3334L6 11.3334M6 11.3334V2.66669M10 4.66669L14 2.66669V7.66669M10 4.66669V8.33335M12.6667 12V12.0067M14.0807 13.414C14.3604 13.1344 14.551 12.778 14.6282 12.39C14.7054 12.002 14.6658 11.5999 14.5145 11.2344C14.3631 10.8689 14.1068 10.5565 13.7779 10.3367C13.449 10.1169 13.0623 9.99961 12.6667 9.99961C12.2711 9.99961 11.8844 10.1169 11.5555 10.3367C11.2266 10.5565 10.9702 10.8689 10.8189 11.2344C10.6675 11.5999 10.6279 12.002 10.7051 12.39C10.7824 12.778 10.9729 13.1344 11.2527 13.414C11.5313 13.6934 12.0027 14.1107 12.6667 14.6667C13.3673 14.0734 13.8393 13.656 14.0807 13.414Z" stroke="currentColor" stroke-width="1.5" stroke-linecap="round" stroke-linejoin="round"/>
</svg>
