<svg width="24" height="24" viewBox="0 0 24 24" fill="none" xmlns="http://www.w3.org/2000/svg">
<path d="M11.0217 18.4761C10.8297 18.6681 10.0967 19.2231 9.82471 19.2771L4.6567 20.2901C4.3847 20.3441 4.2067 20.1651 4.2597 19.8931L5.2737 14.7281C5.3277 14.4561 5.8817 13.7221 6.0737 13.5301M11.2102 18.2925C10.9182 18.5845 10.4412 18.5845 10.1492 18.2925L6.2602 14.4035C5.9692 14.1115 5.9692 13.6345 6.2602 13.3425L14.7672 4.83551C15.5482 4.05451 16.8142 4.05451 17.5962 4.83551L19.7172 6.95751C20.4982 7.73751 20.4982 9.00351 19.7172 9.78551L11.2102 18.2925Z" stroke="currentColor" stroke-width="1.5" stroke-linecap="round" stroke-linejoin="round"/>
</svg>
