<svg width="40" height="40" viewBox="0 0 40 40" fill="none" xmlns="http://www.w3.org/2000/svg">
<path d="M16.2646 14.7317C16.2646 13.7412 16.6581 12.7913 17.3585 12.0909C18.0589 11.3905 19.0088 10.9971 19.9993 10.9971C20.9898 10.9971 21.9397 11.3905 22.6401 12.0909C23.3405 12.7913 23.7339 13.7412 23.7339 14.7317C23.7339 16.7941 22.0616 19.0417 19.9993 19.0417C17.937 19.0417 16.2646 16.7941 16.2646 14.7317Z" stroke="currentColor" stroke-width="1.54892" stroke-linecap="round" stroke-linejoin="round"/>
<path d="M19.9996 29.003C22.5589 29.0052 25.0261 28.0897 26.9595 26.4356C27.283 26.1589 27.4248 25.7183 27.2767 25.3192C26.396 22.9458 23.4747 21.2021 19.9996 21.2021C16.5238 21.2021 13.598 22.9465 12.7209 25.3205C12.5737 25.719 12.7156 26.1584 13.0382 26.4347C14.9714 28.0902 17.4395 29.0062 19.9996 29.003Z" stroke="currentColor" stroke-width="1.54892" stroke-linecap="round" stroke-linejoin="round"/>
</svg>
