<svg width="24" height="24" viewBox="0 0 24 24" fill="none" xmlns="http://www.w3.org/2000/svg">
<path fill-rule="evenodd" clip-rule="evenodd" d="M4.0031 10.3318C4.0191 10.2848 4.0431 10.2848 4.0671 10.2848H4.1381L8.4761 9.46578C9.1021 9.43378 9.6461 9.03378 9.8641 8.44578L11.8941 4.39978L11.9361 4.29578C11.9431 4.27178 11.9511 4.24878 12.0001 4.24878C12.0491 4.24878 12.0571 4.27178 12.0651 4.29578L14.1371 8.44578C14.3551 9.03378 14.8991 9.43378 15.5241 9.46578L19.8621 10.2848H19.9331C19.9571 10.2848 19.9821 10.2848 19.9971 10.3318C20.0121 10.3778 19.9921 10.3928 19.9731 10.4068L16.7931 13.5848C16.3001 13.9778 16.0901 14.6228 16.2591 15.2298L16.9401 19.5418L16.9671 19.6568C16.9751 19.6798 16.9821 19.7038 16.9421 19.7318C16.9031 19.7618 16.8831 19.7468 16.8631 19.7318L12.8871 17.3898C12.3521 17.0208 11.6491 17.0208 11.1131 17.3898L7.1971 19.6918L7.1371 19.7318C7.1171 19.7468 7.0981 19.7618 7.0581 19.7318C7.0191 19.7038 7.0251 19.6798 7.0331 19.6568L7.7411 15.2298C7.9101 14.6228 7.7001 13.9778 7.2071 13.5848L4.1181 10.4838L4.0271 10.4068C4.0081 10.3928 3.9881 10.3778 4.0031 10.3318ZM3.0921 11.5788L6.1801 14.6798L6.2711 14.7568C6.2941 14.7738 6.3041 14.8048 6.2951 14.8318L5.5871 19.2588C5.4081 19.8958 5.6351 20.5528 6.1761 20.9458C6.4561 21.1488 6.7761 21.2508 7.0981 21.2508C7.4051 21.2508 7.7131 21.1568 7.9841 20.9698L11.8991 18.6668L11.9601 18.6268C11.9841 18.6088 12.0161 18.6088 12.0401 18.6268L16.0161 20.9698C16.5701 21.3528 17.2751 21.3448 17.8241 20.9458C18.3651 20.5528 18.5921 19.8958 18.4131 19.2588L17.7321 14.9468L17.7051 14.8318C17.6961 14.8048 17.7061 14.7738 17.7301 14.7568L20.9081 11.5788C21.4281 11.1678 21.6301 10.5038 21.4241 9.86778C21.2181 9.23578 20.6701 8.81778 20.0141 8.78678L15.6761 7.96778H15.6061C15.5761 7.96778 15.5511 7.94878 15.5411 7.92078L13.4701 3.76978C13.2401 3.14678 12.6701 2.74878 12.0001 2.74878C11.3301 2.74878 10.7601 3.14778 10.5301 3.76978L8.5021 7.81578L8.4591 7.92078C8.4491 7.94878 8.4241 7.96778 8.3951 7.96778H8.3241L3.9871 8.78678C3.3301 8.81778 2.7821 9.23578 2.5761 9.86778C2.3701 10.5038 2.5721 11.1678 3.0921 11.5788Z" fill="currentColor"/>
</svg>
