<svg width="24" height="24" viewBox="0 0 24 24" fill="none" xmlns="http://www.w3.org/2000/svg">
<path d="M11.925 17.5628L12.0075 17.5673C12.387 17.6085 12.6825 17.931 12.6825 18.3203V19.0418C12.6825 19.4603 12.3435 19.8 11.925 19.8L11.8365 19.7948C11.6521 19.7729 11.4821 19.6842 11.3586 19.5455C11.2352 19.4067 11.167 19.2275 11.1668 19.0418V18.3218C11.1668 17.9025 11.5073 17.5628 11.925 17.5628ZM14.7158 16.8555C14.8899 16.7551 15.0967 16.7279 15.2909 16.7797C15.485 16.8316 15.6507 16.9584 15.7515 17.1323L16.1123 17.7563C16.2027 17.9296 16.2227 18.1312 16.1682 18.319C16.1137 18.5067 15.9888 18.6662 15.8196 18.7642C15.6503 18.8621 15.4498 18.891 15.2599 18.8448C15.0699 18.7985 14.9051 18.6808 14.7998 18.516L14.439 17.8913C14.3387 17.7172 14.3116 17.5104 14.3636 17.3163C14.4157 17.1223 14.5426 16.9568 14.7165 16.8563L14.7158 16.8555ZM8.11727 17.058C8.21772 16.8838 8.38328 16.7566 8.57752 16.7044C8.77176 16.6522 8.97877 16.6793 9.15302 16.7798C9.32727 16.8802 9.45447 17.0458 9.50666 17.24C9.55884 17.4343 9.53172 17.6413 9.43127 17.8155L9.07127 18.4403C8.96971 18.6124 8.80429 18.7375 8.611 18.7883C8.4177 18.8391 8.21216 18.8116 8.03907 18.7116C7.86599 18.6117 7.73936 18.4474 7.68673 18.2546C7.63409 18.0618 7.65972 17.856 7.75802 17.682L8.11727 17.058ZM16.7798 14.8478C16.9898 14.484 17.4533 14.3603 17.8148 14.5695L18.4403 14.9295C18.6071 15.0337 18.727 15.1986 18.7747 15.3895C18.8223 15.5804 18.794 15.7823 18.6957 15.9527C18.5974 16.1231 18.4367 16.2486 18.2476 16.3029C18.0585 16.3571 17.8557 16.3359 17.682 16.2435V16.2428L17.058 15.8828C16.9718 15.8331 16.8961 15.7669 16.8355 15.688C16.7748 15.6091 16.7302 15.519 16.7044 15.4229C16.6786 15.3268 16.6719 15.2265 16.6848 15.1278C16.6978 15.0292 16.73 14.934 16.7798 14.8478ZM12.0008 7.66651C13.1502 7.66671 14.2524 8.12351 15.0651 8.93641C15.8777 9.74931 16.3341 10.8517 16.3339 12.0011C16.3337 13.1506 15.8769 14.2528 15.064 15.0654C14.2511 15.878 13.1487 16.3345 11.9993 16.3343C11.4301 16.3342 10.8666 16.222 10.3408 16.0041C9.81505 15.7862 9.33735 15.4669 8.93498 15.0644C8.12236 14.2515 7.66595 13.1491 7.66615 11.9996C7.66635 10.8502 8.12314 9.74796 8.93604 8.93535C9.74894 8.12273 10.8514 7.66631 12.0008 7.66651ZM6.10952 14.4383C6.28323 14.3459 6.48601 14.3246 6.67511 14.3789C6.86421 14.4331 7.02486 14.5587 7.12319 14.7291C7.22152 14.8995 7.24984 15.1014 7.20219 15.2923C7.15454 15.4832 7.03464 15.6481 6.86777 15.7523L6.24377 16.1123C6.06952 16.2128 5.86247 16.24 5.66816 16.1879C5.47385 16.1358 5.3082 16.0086 5.20765 15.8344C5.1071 15.6601 5.07988 15.4531 5.13199 15.2588C5.18411 15.0645 5.31127 14.8988 5.48552 14.7983L6.10952 14.4383ZM19.0418 11.3168C19.2429 11.3168 19.4357 11.3966 19.5779 11.5388C19.7201 11.681 19.8 11.8739 19.8 12.075C19.8 12.2761 19.7201 12.469 19.5779 12.6112C19.4357 12.7534 19.2429 12.8333 19.0418 12.8333L18.3218 12.8348L18.2333 12.8295C18.0399 12.8084 17.862 12.7138 17.7365 12.5653C17.6109 12.4167 17.5472 12.2256 17.5586 12.0314C17.5699 11.8373 17.6555 11.6549 17.7975 11.522C17.9396 11.3891 18.1273 11.3159 18.3218 11.3175L19.0418 11.3168ZM5.67902 11.1668C5.88012 11.1668 6.07299 11.2466 6.21518 11.3888C6.35738 11.531 6.43727 11.7239 6.43727 11.925C6.43727 12.1261 6.35738 12.319 6.21518 12.4612C6.07299 12.6034 5.88012 12.6833 5.67902 12.6833H4.95902C4.76195 12.6771 4.57502 12.5944 4.43781 12.4528C4.3006 12.3112 4.22388 12.1218 4.22388 11.9246C4.22388 11.7275 4.3006 11.538 4.43781 11.3964C4.57502 11.2549 4.76195 11.1722 4.95902 11.166L5.67902 11.1668ZM17.7563 7.88851C17.8425 7.83863 17.9376 7.8062 18.0363 7.7931C18.135 7.77999 18.2354 7.78645 18.3316 7.81211C18.4278 7.83778 18.518 7.88214 18.5971 7.94267C18.6761 8.0032 18.7425 8.07871 18.7924 8.16489C18.8423 8.25107 18.8747 8.34623 18.8878 8.44494C18.9009 8.54365 18.8945 8.64398 18.8688 8.74019C18.8431 8.8364 18.7988 8.92662 18.7382 9.00569C18.6777 9.08475 18.6022 9.15113 18.516 9.20101L17.892 9.56176C17.8058 9.61153 17.7107 9.64383 17.6121 9.65681C17.5134 9.6698 17.4131 9.66322 17.317 9.63745C17.2209 9.61168 17.1308 9.56722 17.0519 9.50662C16.973 9.44602 16.9067 9.37046 16.857 9.28426C16.7563 9.1105 16.7288 8.90386 16.7804 8.70978C16.832 8.51569 16.9586 8.35005 17.1323 8.24926L17.7563 7.88851ZM5.28377 8.03476C5.38447 7.86098 5.54994 7.73419 5.74394 7.68217C5.93794 7.63016 6.14464 7.65716 6.31877 7.75726L6.94277 8.11726C7.03155 8.16566 7.10976 8.23132 7.17279 8.31039C7.23582 8.38945 7.2824 8.48033 7.30979 8.57766C7.33717 8.675 7.34482 8.77683 7.33226 8.87716C7.31971 8.9775 7.28722 9.07431 7.23669 9.16189C7.18617 9.24948 7.11864 9.32608 7.03808 9.38719C6.95751 9.44829 6.86554 9.49266 6.76757 9.51769C6.6696 9.54272 6.56761 9.5479 6.46761 9.53293C6.36761 9.51796 6.27161 9.48314 6.18527 9.43051L5.56052 9.07051C5.38653 8.96981 5.2596 8.80421 5.20757 8.61003C5.15555 8.41585 5.18343 8.20896 5.28377 8.03476ZM14.9303 5.55976C15.0356 5.39501 15.2004 5.27725 15.3904 5.23102C15.5803 5.18479 15.7808 5.21366 15.9501 5.31161C16.1193 5.40957 16.2442 5.56905 16.2987 5.75682C16.3532 5.94458 16.3332 6.14615 16.2428 6.31951L15.8828 6.94351C15.7821 7.11766 15.6164 7.24469 15.4221 7.29666C15.2278 7.34863 15.0208 7.32129 14.8466 7.22064C14.6725 7.11999 14.5455 6.95428 14.4935 6.75997C14.4415 6.56566 14.4689 6.35866 14.5695 6.18451L14.9303 5.55976ZM8.16527 5.20726C8.33953 5.10669 8.5466 5.07942 8.74096 5.13145C8.93532 5.18349 9.10107 5.31057 9.20177 5.48476L9.56177 6.10876C9.61156 6.19499 9.64387 6.29018 9.65687 6.3889C9.66987 6.48762 9.6633 6.58793 9.63753 6.68411C9.61176 6.78029 9.5673 6.87045 9.50669 6.94945C9.44608 7.02844 9.3705 7.09473 9.28427 7.14451C9.19804 7.1943 9.10285 7.22662 9.00413 7.23962C8.90541 7.25261 8.8051 7.24604 8.70892 7.22027C8.61275 7.1945 8.52258 7.15005 8.44359 7.08943C8.36459 7.02882 8.29831 6.95324 8.24852 6.86701L7.88852 6.24301C7.78815 6.0687 7.76099 5.8617 7.81301 5.6674C7.86503 5.4731 7.99198 5.30735 8.16602 5.20651L8.16527 5.20726ZM12.0765 4.20001C12.495 4.20001 12.8348 4.53976 12.8348 4.95826V5.67826C12.8348 5.87936 12.7549 6.07223 12.6127 6.21443C12.4705 6.35663 12.2776 6.43651 12.0765 6.43651C11.8754 6.43651 11.6826 6.35663 11.5404 6.21443C11.3982 6.07223 11.3183 5.87936 11.3183 5.67826V4.95826C11.3183 4.53976 11.658 4.20001 12.0765 4.20001Z" fill="currentColor"/>
</svg>
