<svg width="16" height="16" viewBox="0 0 16 16" fill="none" xmlns="http://www.w3.org/2000/svg">
<path fill-rule="evenodd" clip-rule="evenodd" d="M5.854 0H10.146C10.2946 3.90696e-06 10.439 0.0496681 10.5561 0.141104C10.6733 0.232539 10.7566 0.360502 10.7927 0.504667L10.9999 1.33333H13.3333H16V2.66667H14V14C14 14.5304 13.7893 15.0391 13.4142 15.4142C13.0391 15.7893 12.5304 16 12 16H4C3.46957 16 2.96086 15.7893 2.58579 15.4142C2.21071 15.0391 2 14.5304 2 14V2.66667H0V1.33333H2.66667H5.0001L5.20733 0.504667C5.24345 0.360502 5.3267 0.232539 5.44386 0.141104C5.56103 0.0496681 5.70538 3.90696e-06 5.854 0ZM11.3333 2.66667H4.66667H3.33333V14C3.33333 14.1768 3.40357 14.3464 3.5286 14.4714C3.65362 14.5964 3.82319 14.6667 4 14.6667H12C12.1768 14.6667 12.3464 14.5964 12.4714 14.4714C12.5964 14.3464 12.6667 14.1768 12.6667 14V2.66667H11.3333ZM5.33333 4.66667V12.6667H6.66667V4.66667H5.33333ZM9.33333 12.6667V4.66667H10.6667V12.6667H9.33333Z" fill="black"/>
</svg>
